<svg viewBox="0 0 1000 1000">
  <path id="d10_obliv_face" stroke="#4f00cf" stroke-miterlimit="10" stroke-width="20" d="M500,970L203.9,329.5l296.1-166.2,296.1,166.2-296.1,640.5h0Z" fill="#080057"/>
  <path id="fang" fill="#CC0000" stroke="#000000" stroke-miterlimit="10" stroke-width="10" d="M396,312.1s198.6,0,202.6,0c0,0,0,0,0,0,0,0,0,0,0,0,.1,0,7.2-.3,9.8,2.4,12.8,13.4-40,27.9-46.7,71.8-3.4,22.3-2.8,78.3-15.4,130.3-12.5,51.3-22.7,90.8-44.4,125.7-16.8,27.1-29.8,39.4-37.7,44.9-1.7,1.1-3.9,1.2-5.7.2-1.8-1-2.8-2.9-2.8-5,1-25.1,3.3-95.5-.6-132-4-37.1-14.4-132.6-29-169.4-12.2-30.5-51.9-69.6-30.1-68.9h0Z"/>
</svg>