<svg viewBox="0 0 1000 1000">
  <path id="d10_hunger_face" d="M500,970L203.9,329.5l296.1-166.2,296.1,166.2-296.1,640.5h0Z" fill="#990000"/>
  <path id="skull" fill="#FFFFFF" stroke="#000000" stroke-miterlimit="10" stroke-width="10" fill-rule="evenodd" d="M428.1,620.8c-7-51.4-31.9-53.7-31.9-53.7,0,0-30.1-5.8-29.9-17.1.2-12.7,11.9-21.9,3.9-39-5.7-12.2,3.4-21.5,3.1-29.3-.6-13.6-9.3-17.3-6.1-47,6.5-58.9,34.1-99.5,135-100.8,100.5-1.2,121.8,36.9,130.4,89.1,1,6.2,1.6,10.5,1,23.1-1.2,26.9-4.4,28.1-4.7,37-.2,7.6,5.4,15.1,1.4,27.8-6.9,22,4.5,26.1,2.3,38.8-2,11.7-27.2,19.5-30.9,20.4-16.5,3.9-23.3,22.5-28.8,52.1-2.5,13.5-5.9,23.6-11.5,32.7-3.2,5.1-5.8,8.2-7.8,10-.7.7-1.8.8-2.7.4-.9-.4-1.5-1.3-1.4-2.3.3-7.8.7-23.5-.2-32-.7-7-.5-27.9-5.8-32.7-6.7-6.1-31.8-1.1-43.1-.4-17.5,1.2-36.2-10.3-44.8,2.7-4.3,6.5-2.9,22.5-3.6,28.9-.9,8.5-.5,24.2-.2,32,0,1-.5,1.9-1.4,2.3-.9.4-2,.3-2.7-.4-2-1.9-4.6-4.9-7.8-10-5.6-9.1-9.7-19.1-11.5-32.7h0ZM599.1,504.2c-1.9-5.3-8.8-22.2-22.3-20.8-6.6.7-19,2.9-22.7,6.8-3.8,3.9-13.5,5.5-15.3,5.8-1.8.3-12.2.2-13,3.8-.8,3.7-3.2,10.4,0,15.9,3.2,5.5,15.8,14.6,23.6,13.2,7.8-1.4,18.3,4.4,26.1,6.3,9.2,2.3,20.4,3.7,24.3-10.8,1.8-6.5.1-17.9-.7-20.4h0ZM403.8,508.3c1.7-2,9.3-26.2,20.9-25,6.6.7,17.9,3,21.7,6.8,3.8,3.8,14.2,5.5,16,5.8,1.8.3,12.8-1,13.7,2.7.9,3.6,3.4,10.4.3,15.9-3.1,5.6-15.5,14.9-23.3,13.7-7.8-1.2-19.4,2-27.2,3.9-7.9,2-16.6,10-22.9-3.5-2.9-6.1-1-18.4.7-20.4h0Z" />
</svg>