<svg viewBox="0 0 1000 1000">
  <path id="d10_normal_face" d="M500,30L203.9,670.5l296.1,166.2,296.1-166.2L500,30Z" fill="#595959"/>
  <path id="ankh"  fill="#FFFFFF" stroke="#000000" stroke-miterlimit="10" stroke-width="10" d="M622.6,388.1c.8.4,1.1.5,1.8,1.1,1,.9,1.6,2.1,2.3,3.1,6.5,9.8,12.2,20.6,13.7,32,.8,6.5-.1,14.5-4.9,19.6,0,0-.9.9-1.7,1.3-1.6.7-3.6.7-5.2-.1-.8-.4-1-.7-1.6-1.3-1.4-1.7-3.5-3.7-5.6-4.6-4.7-2.1-9.7-3.4-14.8-4.4-8.4-1.8-16.9-2.8-25.5-2.8-10.6,0-21.2,0-31.5,1.9-4.9.9-9.7,2.3-14,4.9-5.2,3.2-9.5,7.8-11.6,13.4,0,.3-.2.5-.3.8-2.5,8.3-.4,29.6,7.9,31.6,3.1.8,3.6,2.7,3.4,4.5-1.3,14.6-14.7,52-11.3,83.3.5,4.8,4.8,26.2,5,30.2,1.9,27.6,2.7,64.3-1.6,91.7-4.3,27.4-11.1,54.7-19.6,81.3-.4,1.2-.8,2.3-1.1,3.5,0,0-.2.6-.5,1.1-1.4,2.4-4.9,3.4-7.5,2.1-1-.5-1.8-1.2-2.3-2.1-.3-.5-.5-1.1-.7-1.7-5.1-15.5-9.4-31.3-13.2-47.2-3.4-14.3-6.3-28.7-8.3-43.2-4-29.6-2.9-59.6,0-89.3.6-6.8,3-19,3.6-25.9,3.8-41.1-9.9-69.8-11.1-84.6-.2-2,.4-2.9,3.9-4.6,5.3-2.6,10.6-18.2,8.8-27.9-1-5.1-3.7-9.8-7.6-13.4-3.8-3.5-8.5-5.9-13.5-7.4-8.5-2.4-17.5-2.8-26.5-3-6.4-.1-12.7-.2-19.1.3-8.4.7-16.7,2-24.7,4.4-3.9,1.2-7.9,3.5-11.1,5.8-.5.4-1,.7-1.4,1.2l-.8.8c-.8.5-.9.7-1.8,1-1.4.4-2.9.3-4.2-.2-.9-.4-1-.6-1.7-1.2,0,0-.8-.8-1.4-1.6-3-3.7-4.9-9.2-5.7-13.7-1.3-8,.6-16.2,4.2-23.4,3.4-6.8,8.1-13.3,15.1-17l.9-.4c.9-.2,1.1-.3,2-.3,1.3,0,2.7.6,3.6,1.4.7.7,1.2,1.5,1.8,2.2,3.4,4.2,7.5,8,12.7,10.1,6.6,2.7,14,2.9,21.1,2.9h30.4c-25.7-17.2-43.5-44.3-49.9-73.2-1.6-7.1-2.5-14.4-2.5-21.7,0-17.4,5.3-34.7,15.1-49.4,11-16.4,27.8-29.1,46.9-36.2,31.7-11.7,69.7-8.5,98,9.2,14.3,8.9,26,21.5,33.5,36,9,17.4,11.6,37.4,8.3,56.5-5,28.9-21.1,56.1-45,74.4-1.9,1.5-3.9,2.9-6,4.3,10.3,0,20.6,0,31,0,8,0,16.1-.4,23-4,4.8-2.5,8.5-6.4,11.7-10.6l.7-.8c.6-.4,1.1-.8,1.8-1.1.7-.2,1.4-.4,2.1-.3.7,0,1.4.2,2.1.4h0ZM500.9,261.1c-13,0-26,3.8-36.2,11.7-7.9,6.1-13.9,14.3-17.6,23.3-3.7,9-5.4,18.6-5.2,28.3.3,15.1,4.4,27.8,13.4,40.3,6.3,8.7,14.6,18.7,23.5,25.1,2.1,1.5,2.8-.7,2.8-.7v-4.6c0-6.2.4-12.5-.4-18.6-.4-3.3-1.5-6.6-3.5-9.4-2-2.8-4.8-5-7.7-7h-.2c0-.1-.8-.8-.8-.8-.6-.7-.8-.9-1.2-1.8-.8-2-.2-4.3,1.5-5.7.8-.7,1-.8,2.2-1.2,5.2-1.8,9.9-4.7,13.8-8.5,4.6-4.4,8.1-9.9,10.9-15.5l.5-.9c.2-.2.4-.5.7-.7,2.3-2,6.4-1.8,8.3.8.7.9,1,1.9,1.5,2.8,5,9.6,12.6,18.3,23.9,22,0,0,.7.2,1.1.5,1.9,1.1,3,3.3,2.7,5.3-.2,1-.7,2-1.4,2.8-.4.4-1,.8-1.5,1.1-3.7,2.6-7.2,5.7-9,9.7-2.4,5.3-2.2,11.4-2.1,17.3,0,2.5,0,5.1,0,7.6v5.2c0,1.9,1.9,1.3,2.8.8,5.6-2.6,20.8-22,27.6-32.8,4.9-7.8,6.6-19.7,8.4-28.4.7-3.3.7-6.8.6-10.2-.9-17.2-8-34.4-21.9-45.7-10.1-8.1-23.5-12.3-36.9-12.4h-.4Z"/>
</svg>