<svg viewBox="0 0 1000 1000">
  <g id="SYMBOLS">
    <path id="messyCrit" d="M621.3,388.1c.8.4,1.1.5,1.8,1.1,1,.9,1.6,2.1,2.3,3.1,6.5,9.8,12.2,20.6,13.7,32,.8,6.5-.1,14.5-4.9,19.6,0,0-.9.9-1.7,1.3-1.6.7-3.6.7-5.2-.1-.8-.4-1-.7-1.6-1.3-1.4-1.7-3.5-3.7-5.6-4.6-4.7-2.1-9.7-3.4-14.8-4.4-8.4-1.8-16.9-2.8-25.5-2.8-10.6,0-21.2,0-31.5,1.9-4.9.9-9.7,2.3-14,4.9-5.2,3.2-9.5,7.8-11.6,13.4,0,.3-.2.5-.3.8-2.5,8.3-.4,29.6,7.9,31.6,3.1.8,3.6,2.7,3.4,4.5-1.3,14.6-14.7,52-11.3,83.3.5,4.8,4.8,26.2,5,30.2,1.9,27.6,2.7,64.3-1.6,91.7-4.3,27.4-11.1,54.7-19.6,81.3-.4,1.2-.8,2.3-1.1,3.5,0,0-.2.6-.5,1.1-1.4,2.4-4.9,3.4-7.5,2.1-1-.5-1.8-1.2-2.3-2.1-.3-.5-.5-1.1-.7-1.7-5.1-15.5-9.4-31.3-13.2-47.2-3.4-14.3-6.3-28.7-8.3-43.2-4-29.6-2.9-59.6,0-89.3.6-6.8,3-19,3.6-25.9,3.8-41.1-9.9-69.8-11.1-84.6-.2-2,.4-2.9,3.9-4.6,5.3-2.6,10.6-18.2,8.8-27.9-1-5.1-3.7-9.8-7.6-13.4-3.8-3.5-8.5-5.9-13.5-7.4-8.5-2.4-17.5-2.8-26.5-3-6.4-.1-12.7-.2-19.1.3-8.4.7-16.7,2-24.7,4.4-3.9,1.2-7.9,3.5-11.1,5.8-.5.4-1,.7-1.4,1.2l-.8.8c-.8.5-.9.7-1.8,1-1.4.4-2.9.3-4.2-.2-.9-.4-1-.6-1.7-1.2,0,0-.8-.8-1.4-1.6-3-3.7-4.9-9.2-5.7-13.7-1.3-8,.6-16.2,4.2-23.4,3.4-6.8,8.1-13.3,15.1-17l.9-.4c.9-.2,1.1-.3,2-.3,1.3,0,2.7.6,3.6,1.4.7.7,1.2,1.5,1.8,2.2,3.4,4.2,7.5,8,12.7,10.1,6.6,2.7,14,2.9,21.1,2.9h30.4c-25.7-17.2-43.5-44.3-49.9-73.2-1.6-7.1-2.5-14.4-2.5-21.7,0-17.4,5.3-34.7,15.1-49.4,11-16.4,27.8-29.1,46.9-36.2,31.7-11.7,69.7-8.5,98,9.2,14.3,8.9,26,21.5,33.5,36,9,17.4,11.6,37.4,8.3,56.5-5,28.9-21.1,56.1-45,74.4-1.9,1.5-3.9,2.9-6,4.3,10.3,0,20.6,0,31,0,8,0,16.1-.4,23-4,4.8-2.5,8.5-6.4,11.7-10.6l.7-.8c.6-.4,1.1-.8,1.8-1.1.7-.2,1.4-.4,2.1-.3.7,0,1.4.2,2.1.4h0ZM499.5,261.1c-13,0-26,3.8-36.2,11.7-7.9,6.1-13.9,14.3-17.6,23.3-3.7,9-5.4,18.6-5.2,28.3.3,15.1,4.4,27.8,13.4,40.3,6.3,8.7,14.6,18.7,23.5,25.1,2.1,1.5,2.8-.7,2.8-.7v-4.6c0-6.2.4-12.5-.4-18.6-.4-3.3-1.5-6.6-3.5-9.4-2-2.8-4.8-5-7.7-7h-.2c0-.1-.8-.8-.8-.8-.6-.7-.8-.9-1.2-1.8-.8-2-.2-4.3,1.5-5.7.8-.7,1-.8,2.2-1.2,5.2-1.8,9.9-4.7,13.8-8.5,4.6-4.4,8.1-9.9,10.9-15.5l.5-.9c.2-.2.4-.5.7-.7,2.3-2,6.4-1.8,8.3.8.7.9,1,1.9,1.5,2.8,5,9.6,12.6,18.3,23.9,22,0,0,.7.2,1.1.5,1.9,1.1,3,3.3,2.7,5.3-.2,1-.7,2-1.4,2.8-.4.4-1,.8-1.5,1.1-3.7,2.6-7.2,5.7-9,9.7-2.4,5.3-2.2,11.4-2.1,17.3,0,2.5,0,5.1,0,7.6v5.2c0,1.9,1.9,1.3,2.8.8,5.6-2.6,20.8-22,27.6-32.8,4.9-7.8,6.6-19.7,8.4-28.4.7-3.3.7-6.8.6-10.2-.9-17.2-8-34.4-21.9-45.7-10.1-8.1-23.5-12.3-36.9-12.4h-.4ZM436.8,475.4h-92.1s0,0,0,0,0,0,0,0c0,0-3.3-.1-4.4,1.1-5.8,6.1,18.2,12.7,21.2,32.6,1.5,10.1,1.3,35.6,7,59.2,5.7,23.3,10.3,41.3,20.2,57.2,7.6,12.3,13.5,17.9,17.1,20.4.8.5,1.8.5,2.6,0,.8-.5,1.3-1.3,1.3-2.3-.5-11.4-1.5-43.4.3-60,1.8-16.9,6.5-60.3,13.2-77,5.5-13.9,23.6-31.6,13.7-31.3h0ZM563.2,475.1c-9.9-.3,8.2,17.5,13.7,31.3,6.6,16.7,11.4,60.1,13.2,77,1.8,16.6.7,48.6.3,60,0,.9.4,1.8,1.3,2.3.8.5,1.8.4,2.6,0,3.6-2.5,9.5-8.1,17.1-20.4,9.8-15.9,14.5-33.8,20.2-57.2,5.8-23.6,5.5-49.1,7-59.2,3-19.9,27.1-26.6,21.2-32.6-1.2-1.2-4.4-1.1-4.4-1.1,0,0,0,0,0,0t0,0c-1.8,0-92.1,0-92.1,0h0Z"/>
    <path id="crit" d="M620.4,388.1c.8.4,1.1.5,1.8,1.1,1,.9,1.6,2.1,2.3,3.1,6.5,9.8,12.2,20.6,13.7,32,.8,6.5-.1,14.5-4.9,19.6,0,0-.9.9-1.7,1.3-1.6.7-3.6.7-5.2-.1-.8-.4-1-.7-1.6-1.3-1.4-1.7-3.5-3.7-5.6-4.6-4.7-2.1-9.7-3.4-14.8-4.4-8.4-1.8-16.9-2.8-25.5-2.8-10.6,0-21.2,0-31.5,1.9-4.9.9-9.7,2.3-14,4.9-5.2,3.2-9.5,7.8-11.6,13.4,0,.3-.2.5-.3.8-2.5,8.3-.4,29.6,7.9,31.6,3.1.8,3.6,2.7,3.4,4.5-1.3,14.6-14.7,52-11.3,83.3.5,4.8,4.8,26.2,5,30.2,1.9,27.6,2.7,64.3-1.6,91.7-4.3,27.4-11.1,54.7-19.6,81.3-.4,1.2-.8,2.3-1.1,3.5,0,0-.2.6-.5,1.1-1.4,2.4-4.9,3.4-7.5,2.1-1-.5-1.8-1.2-2.3-2.1-.3-.5-.5-1.1-.7-1.7-5.1-15.5-9.4-31.3-13.2-47.2-3.4-14.3-6.3-28.7-8.3-43.2-4-29.6-2.9-59.6,0-89.3.6-6.8,3-19,3.6-25.9,3.8-41.1-9.9-69.8-11.1-84.6-.2-2,.4-2.9,3.9-4.6,5.3-2.6,10.6-18.2,8.8-27.9-1-5.1-3.7-9.8-7.6-13.4-3.8-3.5-8.5-5.9-13.5-7.4-8.5-2.4-17.5-2.8-26.5-3-6.4-.1-12.7-.2-19.1.3-8.4.7-16.7,2-24.7,4.4-3.9,1.2-7.9,3.5-11.1,5.8-.5.4-1,.7-1.4,1.2l-.8.8c-.8.5-.9.7-1.8,1-1.4.4-2.9.3-4.2-.2-.9-.4-1-.6-1.7-1.2,0,0-.8-.8-1.4-1.6-3-3.7-4.9-9.2-5.7-13.7-1.3-8,.6-16.2,4.2-23.4,3.4-6.8,8.1-13.3,15.1-17l.9-.4c.9-.2,1.1-.3,2-.3,1.3,0,2.7.6,3.6,1.4.7.7,1.2,1.5,1.8,2.2,3.4,4.2,7.5,8,12.7,10.1,6.6,2.7,14,2.9,21.1,2.9h30.4c-25.7-17.2-43.5-44.3-49.9-73.2-1.6-7.1-2.5-14.4-2.5-21.7,0-17.4,5.3-34.7,15.1-49.4,11-16.4,27.8-29.1,46.9-36.2,31.7-11.7,69.7-8.5,98,9.2,14.3,8.9,26,21.5,33.5,36,9,17.4,11.6,37.4,8.3,56.5-5,28.9-21.1,56.1-45,74.4-1.9,1.5-3.9,2.9-6,4.3,10.3,0,20.6,0,31,0,8,0,16.1-.4,23-4,4.8-2.5,8.5-6.4,11.7-10.6l.7-.8c.6-.4,1.1-.8,1.8-1.1.7-.2,1.4-.4,2.1-.3.7,0,1.4.2,2.1.4h0ZM498.7,261.1c-13,0-26,3.8-36.2,11.7-7.9,6.1-13.9,14.3-17.6,23.3-3.7,9-5.4,18.6-5.2,28.3.3,15.1,4.4,27.8,13.4,40.3,6.3,8.7,14.6,18.7,23.5,25.1,2.1,1.5,2.8-.7,2.8-.7v-4.6c0-6.2.4-12.5-.4-18.6-.4-3.3-1.5-6.6-3.5-9.4-2-2.8-4.8-5-7.7-7h-.2c0-.1-.8-.8-.8-.8-.6-.7-.8-.9-1.2-1.8-.8-2-.2-4.3,1.5-5.7.8-.7,1-.8,2.2-1.2,5.2-1.8,9.9-4.7,13.8-8.5,4.6-4.4,8.1-9.9,10.9-15.5l.5-.9c.2-.2.4-.5.7-.7,2.3-2,6.4-1.8,8.3.8.6.9,1,1.9,1.5,2.8,5,9.6,12.6,18.3,23.9,22,0,0,.7.2,1.1.5,1.9,1.1,3,3.3,2.7,5.3-.2,1-.7,2-1.4,2.8-.4.4-1,.8-1.5,1.1-3.7,2.6-7.2,5.7-9,9.7-2.4,5.3-2.2,11.4-2.1,17.3,0,2.5,0,5.1,0,7.6v5.2c0,1.9,1.9,1.3,2.8.8,5.6-2.6,20.8-22,27.6-32.8,4.9-7.8,6.6-19.7,8.4-28.4.7-3.3.7-6.8.6-10.2-.9-17.2-8-34.4-21.9-45.7-10.1-8.1-23.5-12.3-36.9-12.4h-.4ZM374,491.6c-5.8,0-15.7,40.9-22.9,47.2-6.9,6-48.2.8-50,6.3-1.8,5.5,37,22.2,40.5,32.3,2.7,7.8-17.1,50.8-12.4,54.2,4.5,3.2,36.6-31.6,45.2-31.7,7.9,0,41.1,35.1,45.8,31.7,4.7-3.4-17.2-44.7-14.4-54.5,3-10.6,43.9-22.7,42.5-32-.9-5.7-46.1.5-52.9-4.6-7.9-6-15.8-48.8-21.6-48.8h0ZM626,491.6c-5.8,0-13.7,42.8-21.6,48.8-6.8,5.2-52-1.1-52.9,4.6-1.4,9.3,39.5,21.4,42.5,32,2.8,9.9-19.1,51.1-14.4,54.5,4.7,3.4,37.8-31.7,45.8-31.7,8.6,0,40.7,34.9,45.2,31.7,4.7-3.4-15.1-46.4-12.4-54.2,3.6-10.1,42.3-26.8,40.5-32.3-1.8-5.5-43.1-.2-50-6.3-7.2-6.3-17.1-47.2-22.9-47.2h0Z"/>
    <path id="fang" d="M396,312.1s198.6,0,202.6,0c0,0,0,0,0,0,0,0,0,0,0,0,.1,0,7.2-.3,9.8,2.4,12.8,13.4-40,27.9-46.7,71.8-3.4,22.3-2.8,78.3-15.4,130.3-12.5,51.3-22.7,90.8-44.4,125.7-16.8,27.1-29.8,39.4-37.7,44.9-1.7,1.1-3.9,1.2-5.7.2-1.8-1-2.8-2.9-2.8-5,1-25.1,3.3-95.5-.6-132-4-37.1-14.4-132.6-29-169.4-12.2-30.5-51.9-69.6-30.1-68.9h0Z"/>
    <path id="ankh" d="M622.6,388.1c.8.4,1.1.5,1.8,1.1,1,.9,1.6,2.1,2.3,3.1,6.5,9.8,12.2,20.6,13.7,32,.8,6.5-.1,14.5-4.9,19.6,0,0-.9.9-1.7,1.3-1.6.7-3.6.7-5.2-.1-.8-.4-1-.7-1.6-1.3-1.4-1.7-3.5-3.7-5.6-4.6-4.7-2.1-9.7-3.4-14.8-4.4-8.4-1.8-16.9-2.8-25.5-2.8-10.6,0-21.2,0-31.5,1.9-4.9.9-9.7,2.3-14,4.9-5.2,3.2-9.5,7.8-11.6,13.4,0,.3-.2.5-.3.8-2.5,8.3-.4,29.6,7.9,31.6,3.1.8,3.6,2.7,3.4,4.5-1.3,14.6-14.7,52-11.3,83.3.5,4.8,4.8,26.2,5,30.2,1.9,27.6,2.7,64.3-1.6,91.7-4.3,27.4-11.1,54.7-19.6,81.3-.4,1.2-.8,2.3-1.1,3.5,0,0-.2.6-.5,1.1-1.4,2.4-4.9,3.4-7.5,2.1-1-.5-1.8-1.2-2.3-2.1-.3-.5-.5-1.1-.7-1.7-5.1-15.5-9.4-31.3-13.2-47.2-3.4-14.3-6.3-28.7-8.3-43.2-4-29.6-2.9-59.6,0-89.3.6-6.8,3-19,3.6-25.9,3.8-41.1-9.9-69.8-11.1-84.6-.2-2,.4-2.9,3.9-4.6,5.3-2.6,10.6-18.2,8.8-27.9-1-5.1-3.7-9.8-7.6-13.4-3.8-3.5-8.5-5.9-13.5-7.4-8.5-2.4-17.5-2.8-26.5-3-6.4-.1-12.7-.2-19.1.3-8.4.7-16.7,2-24.7,4.4-3.9,1.2-7.9,3.5-11.1,5.8-.5.4-1,.7-1.4,1.2l-.8.8c-.8.5-.9.7-1.8,1-1.4.4-2.9.3-4.2-.2-.9-.4-1-.6-1.7-1.2,0,0-.8-.8-1.4-1.6-3-3.7-4.9-9.2-5.7-13.7-1.3-8,.6-16.2,4.2-23.4,3.4-6.8,8.1-13.3,15.1-17l.9-.4c.9-.2,1.1-.3,2-.3,1.3,0,2.7.6,3.6,1.4.7.7,1.2,1.5,1.8,2.2,3.4,4.2,7.5,8,12.7,10.1,6.6,2.7,14,2.9,21.1,2.9h30.4c-25.7-17.2-43.5-44.3-49.9-73.2-1.6-7.1-2.5-14.4-2.5-21.7,0-17.4,5.3-34.7,15.1-49.4,11-16.4,27.8-29.1,46.9-36.2,31.7-11.7,69.7-8.5,98,9.2,14.3,8.9,26,21.5,33.5,36,9,17.4,11.6,37.4,8.3,56.5-5,28.9-21.1,56.1-45,74.4-1.9,1.5-3.9,2.9-6,4.3,10.3,0,20.6,0,31,0,8,0,16.1-.4,23-4,4.8-2.5,8.5-6.4,11.7-10.6l.7-.8c.6-.4,1.1-.8,1.8-1.1.7-.2,1.4-.4,2.1-.3.7,0,1.4.2,2.1.4h0ZM500.9,261.1c-13,0-26,3.8-36.2,11.7-7.9,6.1-13.9,14.3-17.6,23.3-3.7,9-5.4,18.6-5.2,28.3.3,15.1,4.4,27.8,13.4,40.3,6.3,8.7,14.6,18.7,23.5,25.1,2.1,1.5,2.8-.7,2.8-.7v-4.6c0-6.2.4-12.5-.4-18.6-.4-3.3-1.5-6.6-3.5-9.4-2-2.8-4.8-5-7.7-7h-.2c0-.1-.8-.8-.8-.8-.6-.7-.8-.9-1.2-1.8-.8-2-.2-4.3,1.5-5.7.8-.7,1-.8,2.2-1.2,5.2-1.8,9.9-4.7,13.8-8.5,4.6-4.4,8.1-9.9,10.9-15.5l.5-.9c.2-.2.4-.5.7-.7,2.3-2,6.4-1.8,8.3.8.7.9,1,1.9,1.5,2.8,5,9.6,12.6,18.3,23.9,22,0,0,.7.2,1.1.5,1.9,1.1,3,3.3,2.7,5.3-.2,1-.7,2-1.4,2.8-.4.4-1,.8-1.5,1.1-3.7,2.6-7.2,5.7-9,9.7-2.4,5.3-2.2,11.4-2.1,17.3,0,2.5,0,5.1,0,7.6v5.2c0,1.9,1.9,1.3,2.8.8,5.6-2.6,20.8-22,27.6-32.8,4.9-7.8,6.6-19.7,8.4-28.4.7-3.3.7-6.8.6-10.2-.9-17.2-8-34.4-21.9-45.7-10.1-8.1-23.5-12.3-36.9-12.4h-.4Z"/>
    <path id="skull" fill-rule="evenodd" d="M428.1,620.8c-7-51.4-31.9-53.7-31.9-53.7,0,0-30.1-5.8-29.9-17.1.2-12.7,11.9-21.9,3.9-39-5.7-12.2,3.4-21.5,3.1-29.3-.6-13.6-9.3-17.3-6.1-47,6.5-58.9,34.1-99.5,135-100.8,100.5-1.2,121.8,36.9,130.4,89.1,1,6.2,1.6,10.5,1,23.1-1.2,26.9-4.4,28.1-4.7,37-.2,7.6,5.4,15.1,1.4,27.8-6.9,22,4.5,26.1,2.3,38.8-2,11.7-27.2,19.5-30.9,20.4-16.5,3.9-23.3,22.5-28.8,52.1-2.5,13.5-5.9,23.6-11.5,32.7-3.2,5.1-5.8,8.2-7.8,10-.7.7-1.8.8-2.7.4-.9-.4-1.5-1.3-1.4-2.3.3-7.8.7-23.5-.2-32-.7-7-.5-27.9-5.8-32.7-6.7-6.1-31.8-1.1-43.1-.4-17.5,1.2-36.2-10.3-44.8,2.7-4.3,6.5-2.9,22.5-3.6,28.9-.9,8.5-.5,24.2-.2,32,0,1-.5,1.9-1.4,2.3-.9.4-2,.3-2.7-.4-2-1.9-4.6-4.9-7.8-10-5.6-9.1-9.7-19.1-11.5-32.7h0ZM599.1,504.2c-1.9-5.3-8.8-22.2-22.3-20.8-6.6.7-19,2.9-22.7,6.8-3.8,3.9-13.5,5.5-15.3,5.8-1.8.3-12.2.2-13,3.8-.8,3.7-3.2,10.4,0,15.9,3.2,5.5,15.8,14.6,23.6,13.2,7.8-1.4,18.3,4.4,26.1,6.3,9.2,2.3,20.4,3.7,24.3-10.8,1.8-6.5.1-17.9-.7-20.4h0ZM403.8,508.3c1.7-2,9.3-26.2,20.9-25,6.6.7,17.9,3,21.7,6.8,3.8,3.8,14.2,5.5,16,5.8,1.8.3,12.8-1,13.7,2.7.9,3.6,3.4,10.4.3,15.9-3.1,5.6-15.5,14.9-23.3,13.7-7.8-1.2-19.4,2-27.2,3.9-7.9,2-16.6,10-22.9-3.5-2.9-6.1-1-18.4.7-20.4h0Z" />
    <path id="wwScratch" d="M628.7,373.6c-1.1,7-9.4,18.8-10.2,26.9l-10.2-6.5c-11.6,45.4-50.1,60.5-84.2,84.8-26.9,19.2-67.4,45.6-89.8,68.8-6.3,6.5-11.6,17.9-16.5,22-2.3,2-6.1.2-9,3.5-3.9,4.5-5.8,12.5-7.7,18.1l7.7,5.2c-22,17.6-36.6,34.5-43.6,62.7-7,6.8-5.4-18.9-5.3-21.8,2-36.1,14-32.8,27.9-56.5,9-15.4,9.1-34.5,24.6-49.7,8.2-8,20.7-9.7,30.8-17.9,11-9,21.7-28.8,34.7-34.5,6.9-3,11.3,2.3,17.8.3,5.1-1.5,44.6-37.3,45.9-41.3v-3.8l-7.6-3.8c8.2-12.1,25.2-7.1,35.6-15.6,8.5-6.9,13.8-24,21.8-32,5.3-5.3,13.2-6.9,16.9-11.3,8.8-10.7,12.3-39.1,17.8-52.6,10.3-1.5,2.5,6.7,2.5,8.9,0,13.4,1.9,33.9,0,46v.3h0ZM653,382.6c-6.4,8.4-6.8,18.9-13,28-8,11.5-23,16.9-33.2,28.3-3.8,4.2-4.9,10.1-6.9,12.3-3.7,3.8-10-.8-16.1,2.9-17.4,10.6-21.8,42.5-52.3,33.6,2.8,12.8-8.5,12.3-13,19-4.1,6.2-3.7,16.9-10,23.3-6.9,6.9-15.9,4.3-23.1,7.7-13.8,6.7-50,97.9-41.1,108.7,5.3.9,6.1-2.3,7.9-6.2,5.4-12.1,4.9-32.5,13-43.3,4.4-5.9,16.9-10,19-14.4,1.6-3.5-1.9-7.5-.9-11.1,2.2-9,37.3-32.4,46.9-37.6,3.9,3.9-3.3,14.9,6.4,12.8,5.9-17.6,13.8-32.9,28.4-44.5,9.5-7.5,28.4-15.1,35.7-23.3,2.5-2.8-.3-6.1,2.3-10.1,6.3-10.1,20.6-15.9,28.4-23,11.7-10.6,19.8-24.6,30.7-36l-7.6-1.2-1.3-25.6h0l-.2-.2ZM560.8,356.9c-5.7,7.7-4.6,11.9-7.8,17.8-5.5,10-25.2,15.6-34.2,22.1-13.7,9.8-51.7,45.8-64.2,50.9-6.1,2.4-11.6.8-18.8,4.3-5.4,2.6-32.4,26.2-37.6,31.5-11.9,12.7-17.6,30.1-17.7,47.4l16.6-23c18.1-12.5,32.8-30.6,53.7-38.6l5.2,5.3c6.2-5.4,8.4-13,15.8-17.5,6.1-3.8,25.8-7.2,28-10.5s-3.3-7.9.8-11.5c4.1-3.7,10-3.2,14.3-6.4,4.4-3.3,47.9-42.2,49.9-44.8,6.1-7.9,4.7-17.1,9.7-26.2,5.1-9.1,16.2-13.4,18.5-23.8-3.6-3.2-28.8,18.6-32.1,23v-.2h0ZM667.4,432.7c-13.3,8.3-37,37.6-45.8,51.4-9.7,15.1-12.6,37.2-31.2,44.3l-3.8-7.7c-6.5,7.4-15.8,14.2-21.8,21.8-8.4,11-10,21.8-16.9,31.8-12.7,18.7-39.9,27-39.5,56.4,4.8,5,17-19.8,19.4-22.8,10.9-13.2,22.8-18,33.1-28.3,3.8-3.8,9.4-15.3,12.2-17.3,3.8-2.7,11.1-1.8,16-5.8s4.3-11.1,7-14.6c5.2-6.9,20.7-6.3,24.3-20.5,6.7-27.2,4.3-14.6,17.1-34.2,12.9-19.8,20.8-42.2,39.8-58.7-4.3-.8-6.8,2.2-10,4h0Z" />
    <path id="wwCrit" d="M628.7,373.6c-1.1,7-9.4,18.8-10.2,26.9l-10.2-6.5c-11.6,45.4-50.1,60.5-84.2,84.8-26.9,19.2-67.4,45.6-89.8,68.8-6.3,6.5-11.6,17.9-16.5,22-2.3,2-6.1.2-9,3.5-3.9,4.5-5.8,12.5-7.7,18.1l7.7,5.2c-22,17.6-36.6,34.5-43.6,62.7-7,6.8-5.4-18.9-5.3-21.8,2-36.1,14-32.8,27.9-56.5,9-15.4,9.1-34.5,24.6-49.7,8.2-8,20.7-9.7,30.8-17.9,11-9,21.7-28.8,34.7-34.5,6.9-3,11.3,2.3,17.8.3,5.1-1.5,44.6-37.3,45.9-41.3v-3.8l-7.6-3.8c8.2-12.1,25.2-7.1,35.6-15.6,8.5-6.9,13.8-24,21.8-32,5.3-5.3,13.2-6.9,16.9-11.3,8.8-10.7,12.3-39.1,17.8-52.6,10.3-1.5,2.5,6.7,2.5,8.9,0,13.4,1.9,33.9,0,46v.3h0ZM653,382.6c-6.4,8.4-6.8,18.9-13,28-8,11.5-23,16.9-33.2,28.3-3.8,4.2-4.9,10.1-6.9,12.3-3.7,3.8-10-.8-16.1,2.9-17.4,10.6-21.8,42.5-52.3,33.6,2.8,12.8-8.5,12.3-13,19-4.1,6.2-3.7,16.9-10,23.3-6.9,6.9-15.9,4.3-23.1,7.7-13.8,6.7-50,97.9-41.1,108.7,5.3.9,6.1-2.3,7.9-6.2,5.4-12.1,4.9-32.5,13-43.3,4.4-5.9,16.9-10,19-14.4s-1.9-7.5-.9-11.1c2.2-9,37.3-32.4,46.9-37.6,3.9,3.9-3.3,14.9,6.4,12.8,5.9-17.6,13.8-32.9,28.4-44.5,9.5-7.5,28.4-15.1,35.7-23.3,2.5-2.8-.3-6.1,2.3-10.1,6.3-10.1,20.6-15.9,28.4-23,11.7-10.6,19.8-24.6,30.7-36l-7.6-1.2-1.3-25.6h0l-.2-.2ZM560.8,356.9c-5.7,7.7-4.6,11.9-7.8,17.8-5.5,10-25.2,15.6-34.2,22.1-13.7,9.8-51.7,45.8-64.2,50.9-6.1,2.4-11.6.8-18.8,4.3-5.4,2.6-32.4,26.2-37.6,31.5-11.9,12.7-17.6,30.1-17.7,47.4l16.6-23c18.1-12.5,32.8-30.6,53.7-38.6l5.2,5.3c6.2-5.4,8.4-13,15.8-17.5,6.1-3.8,25.8-7.2,28-10.5,2.1-2.9-3.3-7.9.8-11.5,4.1-3.7,10-3.2,14.3-6.4,4.4-3.3,47.9-42.2,49.9-44.8,6.1-7.9,4.7-17.1,9.7-26.2,5.1-9.1,16.2-13.4,18.5-23.8-3.6-3.2-28.8,18.6-32.1,23v-.2h0ZM667.4,432.7c-13.3,8.3-37,37.6-45.8,51.4-9.7,15.1-12.6,37.2-31.2,44.3l-3.8-7.7c-6.5,7.4-15.8,14.2-21.8,21.8-8.4,11-10,21.8-16.9,31.8-12.7,18.7-39.9,27-39.5,56.4,4.8,5,17-19.8,19.4-22.8,10.9-13.2,22.8-18,33.1-28.3,3.8-3.8,9.4-15.3,12.2-17.3,3.8-2.7,11.1-1.8,16-5.8,5.5-4.5,4.3-11.1,7-14.6,5.2-6.9,20.7-6.3,24.3-20.5,6.7-27.2,4.3-14.6,17.1-34.2,12.9-19.8,20.8-42.2,39.8-58.7-4.3-.8-6.8,2.2-10,4h0ZM593.8,602.4h-31.3l25.3,18.4-9.7,29.7,25.3-18.4,25.3,18.4-9.7-29.7,25.3-18.4h-31.3l-9.7-29.7-9.7,29.7h.2ZM421.5,370.9h-31.3l25.3,18.4-9.7,29.7,25.3-18.4,25.3,18.4-9.7-29.7,25.3-18.4h-31.3l-9.7-29.7-9.7,29.7h.2Z" />
    <path id="wwJaws" d="M497.2,333.5c5.5-2.1,4.6-9.8,10.1-14.7,19-17.1,27.9,1.8,38.1,14.6,42.6-43.8,39.8,71.6,4.4,73.3l-5.1-28.6-6.6-3.6c-1.7,6.5-12,39.6-19,38-16-11-14.5-30.7-20.6-46.8,0,11.6-5.1,42-17.6,46.8s-8.3-8.3-9.6-10.8c-4.7-9-6.1-19.7-13.8-27.2l-7.4,32.1-11.1-.4c-12.2-20.5-17.7-37.6-14.8-62.1,5.2-43,24.7-9.6,30.1-10.7,12.4-22.2,39.4-32.1,42.8.1ZM584.1,330.4c-13.1,8.3,8.6,48.7,11.8,61.1,13.1,49.9,16.6,101.5,21.3,152.8,7.6,8.1,24.9-24.7,26.9-30.1,13.2-35.9,20-100.4,13.7-137.9-1.4-8.6-10-39.7-15.1-44.9-9.7-9.9-47.6-8.1-58.7-1ZM345.8,359.2c-11.8,43.7-5.8,119.9,12.7,161.3,7.6,17.1,22,37.9,26.7,6.8,5.6-37.3,4.3-76.7,13.2-115.5,3.5-15.4,26.5-69.8,19.4-80.8-38.8-11-60.3-14.9-72,28.2ZM484,620.4l-17.6,26.3-8.7-23.4c-19.8,10.9-24.7,38.3-13.4,57.2,8.5,5.8,15.4-6.3,21.8-4.5,3.2.9,3.8,7,6.7,8.8,8.8,5.6,23.1,2.5,24.4-8.9,10.5,15,27.1,17,36.8.1l21.5,5.5c8.9-20.9,5.5-41.7-10.1-58.3-11.2-2.8-3.7,26.6-16,23.4-.6-6.1-8-28.2-16.1-26.3l-16.1,29.3c2.5-14.2-2.8-20.8-13.2-29.2ZM380.1,613c-.2,21.2,20.9,76.9,48.5,60.2,10.6-6.4,8.8-35.7,4.8-46.2-3.7-9.8-16-17.7-19.7-27.1-5.5-13.8-1.3-27.5-.5-41.7.1-2.1,3.6-11.4-2.4-11-10.5.7-30.6,54.7-30.8,65.7ZM587.9,598.4c0,4.4-14.1,15.7-17.1,20.9-21.2,36,5.7,85.3,35.3,38.2,22.1-35.3,11.2-82.7-18.1-110.3v51.2Z"/>
  </g>
  <g id="FACES">
    <path id="d10_normal_face" d="M500,30L203.9,670.5l296.1,166.2,296.1-166.2L500,30Z" fill="#595959"/>
    <path id="d10_hunger_face" d="M500,970L203.9,329.5l296.1-166.2,296.1,166.2-296.1,640.5h0Z" fill="#990000"/>
    <path id="d10_rouse_face" d="M500,970L203.9,329.5l296.1-166.2,296.1,166.2-296.1,640.5h0Z" fill="#212121"/>
    <path id="d10_obliv_face" d="M500,970L203.9,329.5l296.1-166.2,296.1,166.2-296.1,640.5h0Z" fill="#080057"/>
    <path id="d10_wwNormal_face" d="M500,30L203.9,670.5l296.1,166.2,296.1-166.2L500,30Z" fill="#7f9900"/>
    <path id="d10_wwRage_face" d="M500,970L203.9,329.5l296.1-166.2,296.1,166.2-296.1,640.5h0Z" fill="#b94500"/>
  </g>
  <g id="D10s">
    <g id="d10_normal">
      <path id="d10_normal_front" d="M500,0L203.9,640.5l296.1,166.2,296.1-166.2L500,0Z" fill="#595959"/>
      <path id="d10_normal_topLeft" d="M500,0L203.9,640.5H46.8v-253.8L500,0Z" fill="#404040"/>
      <path id="d10_normal_topRight" d="M500,0l296.1,640.5h157.1v-253.8L500,0Z" fill="#262626"/>
      <path id="d10_normal_bottomLeft" d="M46.8,640.5h157.1l296.1,166.2v193.4L46.8,640.5Z" fill="#262626"/>
      <path id="d10_normal_bottomRight" d="M953.2,640.5h-157.1l-296.1,166.2v193.4l453.2-359.5Z" fill="#1a1a1a"/>
    </g>
    <g id="d10_hunger">
      <path id="d10_hunger_front" d="M500,0L203.9,640.5l296.1,166.2,296.1-166.2L500,0Z" fill="#990000"/>
      <path id="d10_hunger_topLeft" d="M500,0L203.9,640.5H46.8v-253.8L500,0Z" fill="#740000"/>
      <path id="d10_hunger_topRight" d="M500,0l296.1,640.5h157.1v-253.8L500,0Z" fill="#4d0000"/>
      <path id="d10_hunger_bottomLeft" d="M46.8,640.5h157.1l296.1,166.2v193.4L46.8,640.5Z" fill="#4d0000"/>
      <path id="d10_hunger_bottomRight" d="M953.2,640.5h-157.1l-296.1,166.2v193.4l453.2-359.5Z" fill="#270000"/>
    </g>
    <g id="d10_rouse">
      <path id="d10_rouse_front" d="M500,0L203.9,640.5l296.1,166.2,296.1-166.2L500,0Z" fill="#212121"/>
      <path id="d10_rouse_topLeft" d="M500,0L203.9,640.5H46.8v-253.8L500,0Z" fill="#1c1c1c"/>
      <path id="d10_rouse_topRight" d="M500,0l296.1,640.5h157.1v-253.8L500,0Z" fill="#090909"/>
      <path id="d10_rouse_bottomLeft" d="M46.8,640.5h157.1l296.1,166.2v193.4L46.8,640.5Z" fill="#090909"/>
      <path id="d10_rouse_bottomRight" d="M953.2,640.5h-157.1l-296.1,166.2v193.4l453.2-359.5Z" fill="#000000"/>
    </g>
    <g id="d10_obliv">
      <path id="d10_obliv_front" d="M500,0L203.9,640.5l296.1,166.2,296.1-166.2L500,0Z" fill="#080057"/>
      <path id="d10_obliv_topLeft" d="M500,0L203.9,640.5H46.8v-253.8L500,0Z" fill="#000032"/>
      <path id="d10_obliv_topRight" d="M500,0l296.1,640.5h157.1v-253.8L500,0Z" fill="#00000b"/>
      <path id="d10_obliv_bottomLeft" d="M46.8,640.5h157.1l296.1,166.2v193.4L46.8,640.5Z" fill="#00000b"/>
      <path id="d10_obliv_bottomRight" d="M953.2,640.5h-157.1l-296.1,166.2v193.4l453.2-359.5Z" fill="#000000"/>
    </g>
    <g id="d10_wwRage">
      <path id="d10_wwRage_front" d="M500,0L203.9,640.5l296.1,166.2,296.1-166.2L500,0Z" fill="#b94500"/>
      <path id="d10_wwRage_topLeft" d="M500,0L203.9,640.5H46.8v-253.8L500,0Z" fill="#943700"/>
      <path id="d10_wwRage_topRight" d="M500,0l296.1,640.5h157.1v-253.8L500,0Z" fill="#6d2900"/>
      <path id="d10_wwRage_bottomLeft" d="M46.8,640.5h157.1l296.1,166.2v193.4L46.8,640.5Z" fill="#6d2900"/>
      <path id="d10_wwRage_bottomRight" d="M953.2,640.5h-157.1l-296.1,166.2v193.4l453.2-359.5Z" fill="#471b00"/>
    </g>
    <g id="d10_wwNormal">
      <path id="d10_wwNormal_front" d="M500,0L203.9,640.5l296.1,166.2,296.1-166.2L500,0Z" fill="#7f9900"/>
      <path id="d10_wwNormal_topLeft" d="M500,0L203.9,640.5H46.8v-253.8L500,0Z" fill="#607400"/>
      <path id="d10_wwNormal_topRight" d="M500,0l296.1,640.5h157.1v-253.8L500,0Z" fill="#404d00"/>
      <path id="d10_wwNormal_bottomLeft" d="M46.8,640.5h157.1l296.1,166.2v193.4L46.8,640.5Z" fill="#404d00"/>
      <path id="d10_wwNormal_bottomRight" d="M953.2,640.5h-157.1l-296.1,166.2v193.4l453.2-359.5Z" fill="#202700"/>
    </g>
  </g>
</svg>